<?xml version="1.0" encoding="UTF-8"?>
<svg id="Capa_1" xmlns="http://www.w3.org/2000/svg" version="1.1" viewBox="0 0 200 60">
  <!-- Generator: Adobe Illustrator 29.6.1, SVG Export Plug-In . SVG Version: 2.1.1 Build 9)  -->
  <defs>
    <style>
      .st0 {
        fill: #fff;
      }
    </style>
  </defs>
  <g>
    <path class="st0" d="M57.7,29.5h-9.9c-.4,0-.6.2-.6.6v.9c0,.4.2.6.6.6h4v6.4c0,.4.2.6.6.6h.8c.4,0,.6-.2.6-.6v-6.4h4c.4,0,.6-.2.6-.6v-.9c0-.4-.2-.6-.6-.6Z"/>
    <path class="st0" d="M70.3,31.6c.4,0,.6-.2.6-.6v-.9c0-.4-.2-.6-.5-.6h-8.4c-1.4,0-2.1.8-2.1,2.4v4.4c0,1.6.7,2.4,2.1,2.4h8.4c.4,0,.6-.2.6-.6v-.9c0-.4-.2-.6-.6-.6h-8.6s0-1.4,0-1.4h8.6c.4,0,.6-.2.6-.6v-.9c0-.4-.2-.6-.6-.6h-8.6v-1.4h8.6Z"/>
    <path class="st0" d="M83.5,30.9v-.9c0-.4-.2-.6-.5-.6h-8.4c-1.4,0-2.1.8-2.1,2.4v4.4c0,1.6.7,2.4,2.1,2.4h8.4c.4,0,.6-.2.6-.6v-.9c0-.4-.2-.6-.6-.6h-8.6s0-4.9,0-4.9h8.6c.4,0,.6-.2.6-.6Z"/>
    <path class="st0" d="M95.6,29.5h-.8c-.4,0-.6.1-.6.4h0v3.1h-7.2v-2.9c0-.4-.2-.6-.6-.6h-.8c-.4,0-.6.1-.6.4h0v8.1c0,.4.2.6.6.6h.8c.4,0,.6-.2.6-.6v-2.9h7.2v2.9c0,.4.2.6.6.6h.8c.4,0,.6-.2.6-.6v-7.9c0-.4-.2-.6-.6-.6Z"/>
    <path class="st0" d="M99.2,29.5h-.8c-.4,0-.6.1-.6.4h0v8.1c0,.4.2.6.6.6h.8c.4,0,.6-.2.6-.6v-7.9c0-.4-.2-.6-.6-.6Z"/>
    <path class="st0" d="M111.8,29.5h-.8c-.4,0-.6.2-.6.6v6.6l-5.4-5.8c-.8-.9-1.5-1.4-2-1.4-1.1,0-1.7.7-1.7,1.9v6.6c0,.4.2.6.6.6h.8c.4,0,.6-.2.6-.6v-6.5l5.4,5.8c.8.9,1.5,1.4,2,1.4,1.1,0,1.7-.6,1.7-1.9v-6.6c0-.4-.2-.6-.6-.6Z"/>
    <path class="st0" d="M124.5,29.5h-.8c-.4,0-.6.2-.6.6v6.6l-5.4-5.8c-.8-.9-1.5-1.4-2-1.4-1.1,0-1.7.7-1.7,1.9v6.6c0,.4.2.6.6.6h.8c.4,0,.6-.2.6-.6v-6.5l5.4,5.8c.8.9,1.5,1.4,2,1.4,1.1,0,1.7-.6,1.7-1.9v-6.6c0-.4-.2-.6-.6-.6Z"/>
    <path class="st0" d="M135.6,29.5h-6.8c-1.4,0-2.1.8-2.1,2.4v4.4c0,1.6.7,2.4,2.1,2.4h6.9c1.4,0,2.1-.8,2.1-2.4v-4.4c0-1.6-.7-2.4-2.1-2.4ZM135.8,36.5h-7.2v-4.9h7.2s0,4.9,0,4.9Z"/>
    <path class="st0" d="M149.3,29.5l-4.3,7.3-4.3-7.3h-2.1l4.5,7.7c.5.9,1.2,1.4,1.9,1.4s1.3-.5,1.9-1.4l4.5-7.7h-2.1Z"/>
    <path class="st0" d="M156.8,30.9c-.5-.9-1.2-1.4-1.9-1.4s-1.3.5-1.9,1.4l-4.5,7.7h2.1l1-1.8h6.5l1,1.8h2.1l-4.5-7.7ZM152.9,34.7l2-3.4,2,3.4h-4Z"/>
    <path class="st0" d="M169.9,29.5h-9.9c-.4,0-.6.2-.6.6v.9c0,.4.2.6.6.6h4v6.4c0,.4.2.6.6.6h.8c.4,0,.6-.2.6-.6v-6.4h4c.4,0,.6-.2.6-.6v-.9c0-.4-.2-.6-.6-.6Z"/>
    <path class="st0" d="M173.4,29.5h-.8c-.4,0-.6.1-.6.4h0v8.1c0,.4.2.6.6.6h.8c.4,0,.6-.2.6-.6v-7.9c0-.4-.2-.6-.6-.6Z"/>
    <path class="st0" d="M184.5,29.5h-6.8c-1.4,0-2.1.8-2.1,2.4v4.4c0,1.6.7,2.4,2.1,2.4h6.9c1.4,0,2.1-.8,2.1-2.4v-4.4c0-1.6-.7-2.4-2.1-2.4ZM184.7,36.5h-7.2v-4.9h7.2s0,4.9,0,4.9Z"/>
    <path class="st0" d="M198.7,29.5h-.8c-.4,0-.6.2-.6.6v6.6l-5.4-5.8c-.8-.9-1.5-1.4-2-1.4-1.1,0-1.7.7-1.7,1.9v6.6c0,.4.2.6.6.6h.8c.4,0,.6-.2.6-.6v-6.5l5.4,5.8c.8.9,1.5,1.4,2,1.4,1.1,0,1.7-.6,1.7-1.9v-6.6c0-.4-.2-.6-.6-.6Z"/>
    <path class="st0" d="M52.9,21.4c0-.3-.1-.4-.4-.4h-.5c-.2,0-.3.1-.3.4v4h-4.4c-.2,0-.4.1-.4.4v.5c0,.3.1.4.4.4h4.3c.9,0,1.3-.5,1.3-1.5v-3.8Z"/>
    <path class="st0" d="M60.6,21c-.4,0-.7.3-1,.9l-1.8,3.3-1.8-3.3c-.3-.6-.7-.9-1-.9-.7,0-1.1.4-1.1,1.2v4.1c0,.2.1.4.4.4h.5c.2,0,.4-.1.4-.4v-3.6s1.9,3.4,1.9,3.4c.2.4.5.6.8.6s.6-.2.8-.6l1.9-3.4v3.6c0,.2.1.4.4.4h.5c.2,0,.3-.1.3-.4v-4.1c0-.8-.4-1.2-1.1-1.2Z"/>
    <path class="st0" d="M68.2,21h-5.2c-.2,0-.4.1-.4.4v4.9c0,.3.1.4.4.4h.5c.2,0,.4-.1.4-.4v-1.2h4.4c.9,0,1.3-.5,1.3-1.5v-1.1c0-1-.4-1.5-1.3-1.5ZM68.3,23.7h-4.5v-1.4s4.5,0,4.5,0v1.4Z"/>
    <path class="st0" d="M76.1,25.3h-4.4s0-4,0-4c0-.2-.1-.4-.3-.4h-.5c-.2,0-.4.1-.4.4v3.8c0,1,.4,1.5,1.3,1.5h4.3c.2,0,.3-.1.3-.4v-.5c0-.3-.1-.4-.3-.4Z"/>
  </g>
  <g>
    <path class="st0" d="M14.7,24.1v25C6.2,46.8,0,39,0,29.8s0-.2,0-.3h9.6c.4.5,1,.9,1.8.9,1.2,0,2.2-1,2.2-2.2s-1-2.2-2.2-2.2-1.3.3-1.8.9H.2c.1-.9.3-1.8.6-2.7h13.9Z"/>
    <path class="st0" d="M40.1,29.8c0,8.2-4.9,15.3-12,18.4v-13.6c.5-.4.9-1,.9-1.8,0-1.2-1-2.2-2.2-2.2s-2.2,1-2.2,2.2.3,1.3.9,1.8v14.6c-.9.2-1.8.4-2.7.5v-20.2h17.4c0,.1,0,.2,0,.3Z"/>
    <path class="st0" d="M39.9,26.8h-19.8s0,23.1,0,23.1c-.9,0-1.8,0-2.7-.2v-28.3s-15.6,0-15.6,0c.4-.9.9-1.8,1.5-2.7h33.5c.6.9,1.1,1.7,1.5,2.7h-16.5c-.4-.5-1-.9-1.8-.9-1.2,0-2.2,1-2.2,2.2s1,2.2,2.2,2.2,1.3-.3,1.8-.9h17.5c.3.9.5,1.8.6,2.7Z"/>
    <path class="st0" d="M34.7,16H5.4c1.3-1.4,2.9-2.7,4.6-3.7,3-1.7,6.4-2.7,10-2.7s7.1,1,10,2.7c1.7,1,3.3,2.2,4.6,3.7Z"/>
    <path class="st0" d="M27.6,32.8c0,.5-.4.9-.9.9s-.9-.4-.9-.9.4-.9.9-.9.9.4.9.9Z"/>
    <path class="st0" d="M12.2,28.1c0,.5-.4.9-.9.9s-.9-.4-.9-.9.4-.9.9-.9.9.4.9.9Z"/>
    <path class="st0" d="M20.9,22.7c0,.5-.4.9-.9.9s-.9-.4-.9-.9.4-.9.9-.9.9.4.9.9Z"/>
  </g>
</svg>