<?xml version="1.0" encoding="UTF-8"?>
<svg id="Capa_1" data-name="Capa 1" xmlns="http://www.w3.org/2000/svg" xmlns:xlink="http://www.w3.org/1999/xlink" viewBox="0 0 191.63 102.54">
  <defs>
    <style>
      .cls-1 {
        fill: url(#Degradado_sin_nombre_723);
      }

      .cls-2 {
        fill: #0d0f17;
      }

      .cls-3 {
        fill: url(#Degradado_sin_nombre_723-3);
      }

      .cls-4 {
        fill: url(#Degradado_sin_nombre_723-2);
      }

      .cls-5 {
        fill: url(#Degradado_sin_nombre_723-7);
      }

      .cls-6 {
        fill: url(#Degradado_sin_nombre_723-4);
      }

      .cls-7 {
        fill: url(#Degradado_sin_nombre_723-6);
      }

      .cls-8 {
        fill: url(#Degradado_sin_nombre_723-5);
      }
    </style>
    <linearGradient id="Degradado_sin_nombre_723" data-name="Degradado sin nombre 723" x1="1561.03" y1="1465.47" x2="1598.65" y2="1465.47" gradientTransform="translate(-2060.09 126.91) rotate(-45)" gradientUnits="userSpaceOnUse">
      <stop offset="0" stop-color="#f07e16"/>
      <stop offset=".5" stop-color="#f49913"/>
      <stop offset="1" stop-color="#f7c161"/>
    </linearGradient>
    <linearGradient id="Degradado_sin_nombre_723-2" data-name="Degradado sin nombre 723" x1="1561.03" y1="1479.55" x2="1598.65" y2="1479.55" xlink:href="#Degradado_sin_nombre_723"/>
    <linearGradient id="Degradado_sin_nombre_723-3" data-name="Degradado sin nombre 723" x1="1561.03" y1="1466.56" x2="1598.65" y2="1466.56" xlink:href="#Degradado_sin_nombre_723"/>
    <linearGradient id="Degradado_sin_nombre_723-4" data-name="Degradado sin nombre 723" x1="1561.03" y1="1459.89" x2="1598.65" y2="1459.89" xlink:href="#Degradado_sin_nombre_723"/>
    <linearGradient id="Degradado_sin_nombre_723-5" data-name="Degradado sin nombre 723" x1="1561.03" y1="1475.73" x2="1598.65" y2="1475.73" xlink:href="#Degradado_sin_nombre_723"/>
    <linearGradient id="Degradado_sin_nombre_723-6" data-name="Degradado sin nombre 723" x1="1561.03" y1="1462.17" x2="1598.65" y2="1462.17" xlink:href="#Degradado_sin_nombre_723"/>
    <linearGradient id="Degradado_sin_nombre_723-7" data-name="Degradado sin nombre 723" x1="1561.03" y1="1464.42" x2="1598.65" y2="1464.42" xlink:href="#Degradado_sin_nombre_723"/>
  </defs>
  <g>
    <path class="cls-1" d="M91.01,42.97v23.91c-8.1-2.24-14.05-9.66-14.05-18.48,0-.1,0-.21,0-.31h9.18c.38.5.99.83,1.67.83,1.16,0,2.11-.94,2.11-2.11s-.94-2.11-2.11-2.11c-.68,0-1.29.32-1.67.83h-8.97c.13-.87.32-1.73.57-2.56h13.26Z"/>
    <path class="cls-4" d="M115.3,48.41c0,7.86-4.72,14.6-11.49,17.57v-13.02c.5-.39.83-.99.83-1.67,0-1.16-.94-2.11-2.11-2.11s-2.11.94-2.11,2.11c0,.68.32,1.29.83,1.67v13.93c-.83.23-1.69.41-2.56.52v-19.31h16.6c0,.1,0,.21,0,.31Z"/>
    <path class="cls-3" d="M115.09,45.53h-18.95s0,22.04,0,22.04c-.87,0-1.72-.06-2.56-.17v-26.99s-14.87,0-14.87,0c.41-.89.89-1.75,1.42-2.56h32.01c.54.81,1.01,1.67,1.42,2.56h-15.75c-.39-.5-.99-.83-1.67-.83-1.16,0-2.11.94-2.11,2.11s.94,2.11,2.11,2.11c.68,0,1.29-.32,1.67-.83h16.71c.25.83.44,1.69.57,2.56Z"/>
    <path class="cls-6" d="M110.11,35.29h-27.96c1.28-1.37,2.77-2.55,4.4-3.49,2.82-1.63,6.09-2.56,9.58-2.56s6.76.93,9.58,2.56c1.64.95,3.12,2.13,4.4,3.49Z"/>
    <path class="cls-8" d="M103.36,51.28c0,.46-.37.83-.83.83s-.83-.37-.83-.83.37-.83.83-.83.83.37.83.83Z"/>
    <path class="cls-7" d="M88.66,46.81c0,.46-.37.83-.83.83s-.83-.37-.83-.83.37-.83.83-.83.83.37.83.83Z"/>
    <path class="cls-5" d="M96.96,41.69c0,.46-.37.83-.83.83s-.83-.37-.83-.83.37-.83.83-.83.83.37.83.83Z"/>
  </g>
  <g>
    <path class="cls-2" d="M57.5,70.97h-5.84c-.22,0-.34.12-.34.36v.52c0,.24.11.36.34.36h2.36v3.77c0,.24.11.36.34.36h.45c.22,0,.34-.12.34-.36v-3.77h2.36c.22,0,.34-.12.34-.36v-.52c0-.24-.11-.36-.34-.36Z"/>
    <path class="cls-2" d="M64.97,72.21c.22,0,.33-.12.33-.36v-.52c0-.24-.1-.36-.32-.36h-4.95c-.83,0-1.24.47-1.24,1.4v2.58c0,.93.41,1.4,1.24,1.4h4.94c.22,0,.33-.12.33-.36v-.52c0-.24-.11-.36-.33-.36h-5.06s0-.83,0-.83h5.06c.22,0,.34-.12.34-.36v-.52c0-.24-.11-.36-.34-.36h-5.06v-.83h5.06Z"/>
    <path class="cls-2" d="M72.77,71.85v-.52c0-.24-.1-.36-.32-.36h-4.95c-.83,0-1.24.47-1.24,1.4v2.58c0,.93.41,1.4,1.24,1.4h4.94c.22,0,.33-.12.33-.36v-.52c0-.24-.11-.36-.33-.36h-5.06s0-2.9,0-2.9h5.06c.22,0,.33-.12.33-.36Z"/>
    <path class="cls-2" d="M79.91,70.97h-.45c-.22,0-.34.09-.34.26h0v1.81h-4.27v-1.71c0-.24-.11-.36-.34-.36h-.45c-.22,0-.34.09-.34.26h0v4.76c0,.24.12.36.34.36h.45c.22,0,.34-.12.34-.36v-1.71h4.28v1.71c0,.24.11.36.34.36h.45c.22,0,.34-.12.34-.36v-4.65c0-.24-.11-.36-.34-.36Z"/>
    <path class="cls-2" d="M81.98,70.97h-.45c-.22,0-.34.09-.34.26h0v4.76c0,.24.12.36.34.36h.45c.22,0,.34-.12.34-.36v-4.65c0-.24-.11-.36-.34-.36Z"/>
    <path class="cls-2" d="M89.45,70.97h-.45c-.22,0-.34.12-.34.36v3.87l-3.17-3.41c-.47-.54-.87-.82-1.21-.82-.67,0-1.01.38-1.01,1.14v3.88c0,.24.11.36.33.36h.45c.22,0,.33-.12.33-.37v-3.85l3.18,3.41c.47.54.87.81,1.21.81.67,0,1.01-.38,1.02-1.14v-3.88c0-.24-.11-.36-.34-.36Z"/>
    <path class="cls-2" d="M96.91,70.97h-.45c-.22,0-.34.12-.34.36v3.87l-3.17-3.41c-.47-.54-.87-.82-1.21-.82-.67,0-1.01.38-1.01,1.14v3.88c0,.24.11.36.33.36h.45c.22,0,.33-.12.33-.37v-3.85l3.18,3.41c.47.54.87.81,1.21.81.67,0,1.01-.38,1.02-1.14v-3.88c0-.24-.11-.36-.34-.36Z"/>
    <path class="cls-2" d="M103.48,70.97h-4.04c-.83,0-1.24.47-1.24,1.4v2.58c0,.93.41,1.4,1.24,1.4h4.05c.82,0,1.24-.46,1.24-1.4v-2.58c0-.93-.41-1.4-1.24-1.4ZM103.59,75.11h-4.27v-2.91h4.27s0,2.91,0,2.91Z"/>
    <path class="cls-2" d="M111.57,70.97l-2.52,4.28-2.52-4.28h-1.27l2.68,4.54c.32.55.69.83,1.11.83s.79-.28,1.12-.83l2.67-4.54h-1.27Z"/>
    <path class="cls-2" d="M116,71.8c-.32-.55-.7-.83-1.12-.83s-.79.28-1.11.83l-2.68,4.54h1.27l.61-1.03h3.82l.61,1.03h1.27l-2.67-4.54ZM113.71,74.07l1.18-2.01,1.18,2.01h-2.36Z"/>
    <path class="cls-2" d="M123.74,70.97h-5.84c-.22,0-.34.12-.34.36v.52c0,.24.11.36.34.36h2.36v3.77c0,.24.11.36.34.36h.45c.22,0,.34-.12.34-.36v-3.77h2.36c.22,0,.34-.12.34-.36v-.52c0-.24-.11-.36-.34-.36Z"/>
    <path class="cls-2" d="M125.81,70.97h-.45c-.22,0-.34.09-.34.26h0v4.76c0,.24.12.36.34.36h.45c.22,0,.34-.12.34-.36v-4.65c0-.24-.11-.36-.34-.36Z"/>
    <path class="cls-2" d="M132.37,70.97h-4.04c-.83,0-1.24.47-1.24,1.4v2.58c0,.93.41,1.4,1.24,1.4h4.05c.82,0,1.24-.46,1.24-1.4v-2.58c0-.93-.41-1.4-1.24-1.4ZM132.48,75.11h-4.27v-2.91h4.27s0,2.91,0,2.91Z"/>
    <path class="cls-2" d="M140.73,70.97h-.45c-.22,0-.34.12-.34.36v3.87l-3.17-3.41c-.47-.54-.87-.82-1.21-.82-.67,0-1.01.38-1.01,1.14v3.88c0,.24.11.36.33.36h.45c.22,0,.33-.12.33-.37v-3.85l3.18,3.41c.47.54.87.81,1.21.81.67,0,1.01-.38,1.02-1.14v-3.88c0-.24-.11-.36-.34-.36Z"/>
    <path class="cls-2" d="M54.68,66.2c0-.15-.07-.22-.21-.22h-.28c-.14,0-.2.07-.2.22v2.34h-2.58c-.14,0-.21.07-.21.22v.32c0,.15.07.22.21.22h2.51c.51,0,.77-.29.77-.86v-2.24Z"/>
    <path class="cls-2" d="M59.24,65.97c-.21,0-.42.17-.62.51l-1.05,1.97-1.06-1.97c-.2-.35-.4-.52-.62-.52-.42,0-.63.24-.63.71v2.4c0,.15.07.22.21.22h.28c.14,0,.21-.07.21-.22v-2.14s1.12,2,1.12,2c.11.24.27.36.48.36s.37-.12.48-.36l1.12-2v2.14c0,.15.07.22.21.22h.28c.14,0,.21-.07.21-.22v-2.4c0-.47-.21-.71-.63-.71Z"/>
    <path class="cls-2" d="M63.72,65.97h-3.06c-.14,0-.21.07-.21.22v2.88c0,.15.07.22.21.22h.28c.14,0,.21-.07.21-.22v-.74h2.57c.51,0,.77-.29.77-.86v-.64c0-.58-.25-.86-.76-.86ZM63.79,67.57h-2.64v-.84s2.65,0,2.65,0v.83Z"/>
    <path class="cls-2" d="M68.35,68.53h-2.58s0-2.34,0-2.34c0-.15-.07-.22-.2-.22h-.28c-.14,0-.21.07-.21.22v2.24c0,.58.25.86.77.86h2.51c.14,0,.21-.07.21-.22v-.32c0-.15-.07-.22-.21-.22Z"/>
    <path class="cls-2" d="M139.83,67.92c.25-.1.39-.31.39-.61,0-.41-.31-.68-.83-.68h-.82v1.97h.43v-.6h.44l.39.6h.43l-.44-.67ZM139.37,67.66h-.37v-.69h.37c.28,0,.44.12.44.34s-.16.35-.44.35ZM139.83,67.92c.25-.1.39-.31.39-.61,0-.41-.31-.68-.83-.68h-.82v1.97h.43v-.6h.44l.39.6h.43l-.44-.67ZM139.37,67.66h-.37v-.69h.37c.28,0,.44.12.44.34s-.16.35-.44.35ZM139.83,67.92c.25-.1.39-.31.39-.61,0-.41-.31-.68-.83-.68h-.82v1.97h.43v-.6h.44l.39.6h.43l-.44-.67ZM139.37,67.66h-.37v-.69h.37c.28,0,.44.12.44.34s-.16.35-.44.35ZM139.83,67.92c.25-.1.39-.31.39-.61,0-.41-.31-.68-.83-.68h-.82v1.97h.43v-.6h.44l.39.6h.43l-.44-.67ZM139.37,67.66h-.37v-.69h.37c.28,0,.44.12.44.34s-.16.35-.44.35ZM139.32,65.85c-1,0-1.77.78-1.77,1.76s.76,1.76,1.76,1.76,1.77-.78,1.77-1.77-.75-1.75-1.76-1.75ZM139.31,69.1c-.84,0-1.47-.65-1.47-1.49s.63-1.49,1.48-1.49,1.47.64,1.47,1.48-.64,1.5-1.48,1.5ZM140.22,67.31c0-.41-.31-.68-.83-.68h-.82v1.97h.43v-.6h.44l.39.6h.43l-.44-.67c.25-.1.39-.31.39-.61ZM139.37,67.66h-.37v-.69h.37c.28,0,.44.12.44.34s-.16.35-.44.35ZM139.83,67.92c.25-.1.39-.31.39-.61,0-.41-.31-.68-.83-.68h-.82v1.97h.43v-.6h.44l.39.6h.43l-.44-.67ZM139.37,67.66h-.37v-.69h.37c.28,0,.44.12.44.34s-.16.35-.44.35ZM139.83,67.92c.25-.1.39-.31.39-.61,0-.41-.31-.68-.83-.68h-.82v1.97h.43v-.6h.44l.39.6h.43l-.44-.67ZM139.37,67.66h-.37v-.69h.37c.28,0,.44.12.44.34s-.16.35-.44.35Z"/>
  </g>
</svg>