<?xml version="1.0" encoding="UTF-8"?>
<svg id="Capa_2" data-name="Capa 2" xmlns="http://www.w3.org/2000/svg" viewBox="0 0 2540.37 369.47">
  <defs>
    <style>
      .cls-1 {
        fill: #fff;
      }
    </style>
  </defs>
  <g id="Capa_1-2" data-name="Capa 1">
    <g>
      <path class="cls-1" d="M722.15,50.32h-159.74l54.71-47.01h161.35c26,0,37.99,32.36,18.26,49.31l-34.78,29.86h-77.25l37.45-32.15Z"/>
      <path class="cls-1" d="M812.2,201.41v46.66h-244.68c-26.02,0-38.01-32.36-18.28-49.29l34.77-29.86h77.25l-37.84,32.49h188.78Z"/>
      <path class="cls-1" d="M1129.2,3.31v51.68h-236.15v27.48h-51.68v-28.26c0-28.11,22.79-50.9,50.9-50.9h236.93Z"/>
      <path class="cls-1" d="M893.05,196.39h236.15v51.68h-236.93c-28.11,0-50.9-22.78-50.9-50.89v-28.26h51.68v27.46Z"/>
      <path class="cls-1" d="M1771.42,196.39h-184.47v-27.46h-51.68v79.15h236.93c28.11,0,50.9-22.78,50.9-50.89v-28.26h-51.68v27.46ZM1772.2,3.31h-236.93v79.16h51.68v-27.48h184.47v27.48h51.68v-28.26c0-28.11-22.79-50.9-50.9-50.9Z"/>
      <g>
        <rect class="cls-1" x="1857.9" y="168.92" width="51.68" height="79.15"/>
        <path class="cls-1" d="M1919.86,12.36l81.64,70.11h-77.26l-14.66-12.59v12.59h-51.68v-41.65c0-20.72,16.8-37.52,37.52-37.52,4.48,0,8.9.8,13.03,2.33,4.14,1.55,8,3.8,11.41,6.73Z"/>
        <polygon class="cls-1" points="2194.35 248.07 2117.1 248.07 2024.93 168.92 2102.17 168.92 2194.35 248.07"/>
      </g>
      <g>
        <rect class="cls-1" x="1164" y="168.92" width="51.68" height="79.15"/>
        <path class="cls-1" d="M1241.52,14.64l79.01,67.84h-77.25l-27.6-23.69v23.69h-51.68v-32.22c0-25.94,21.03-46.95,46.95-46.95,5.6,0,11.12,1,16.3,2.92,5.16,1.92,10.02,4.76,14.27,8.41Z"/>
        <rect class="cls-1" x="1448.78" y="3.31" width="51.67" height="79.16"/>
        <path class="cls-1" d="M1448.78,168.92h51.67v32.22c0,25.92-21.01,46.93-46.93,46.93-5.6,0-11.12-1-16.31-2.92-5.18-1.92-10.02-4.76-14.27-8.41l-78.98-67.82h77.25l27.57,23.68v-23.68Z"/>
      </g>
      <polygon class="cls-1" points="2081.93 151.53 681.52 151.53 741.68 99.86 2021.75 99.86 2081.93 151.53"/>
      <polygon class="cls-1" points="581.66 2.4 297.53 246.41 128.98 163.58 581.66 2.4"/>
      <polygon class="cls-1" points="539.51 0 78.87 130.5 0 91.74 539.51 0"/>
      <polygon class="cls-1" points="664.44 99.86 604.28 151.53 444.62 151.53 504.75 99.86 664.44 99.86"/>
      <polygon class="cls-1" points="1958.71 2.4 2242.84 246.41 2411.39 163.58 1958.71 2.4"/>
      <polygon class="cls-1" points="2000.86 0 2492.16 130.5 2540.37 91.74 2000.86 0"/>
      <line class="cls-1" x1="741.68" y1="99.86" x2="681.52" y2="151.53"/>
      <g>
        <path class="cls-1" d="M1164,367.78v-14.46h58.08c6.05,0,8.63-1.35,8.63-6.5v-4.15c0-4.82-2.58-6.62-8.52-6.62h-36.44c-17.16,0-21.64-6.28-21.64-19.4v-3.81c0-15.7,6.28-21.53,21.64-21.53h60.55v14.47h-58.98c-5.16,0-7.62,1.57-7.62,7.62v2.47c0,4.82,2.02,6.62,7.51,6.62h35.77c17.04,0,23.32,5.61,23.32,19.4v6.06c0,14.24-6.28,19.85-23.32,19.85h-58.98Z"/>
        <path class="cls-1" d="M1319.19,367.78c-22.54,0-29.15-6.95-29.15-26.24v-24c0-19.29,6.62-26.24,29.15-26.24h29.04c22.65,0,29.27,6.95,29.27,26.24v24c0,19.29-6.62,26.24-29.27,26.24h-29.04ZM1360.45,318.34c0-9.53-2.92-12.33-12.89-12.33h-27.58c-10.76,0-13.01,2.8-13.01,12.33v22.54c0,9.98,2.24,12.33,13.01,12.33h27.58c9.98,0,12.89-2.35,12.89-12.33v-22.54Z"/>
        <path class="cls-1" d="M1570.91,367.78v-61.78h-32.07v-14.69h81.29v14.69h-32.07v61.78h-17.16Z"/>
        <path class="cls-1" d="M1731.26,312.84l-23.44,49.34c-2.13,4.37-5.49,7.29-10.88,7.29s-8.41-2.92-10.2-7.29l-29.71-70.87h18.95l22.43,55.28,22.76-50.12c2.24-5.05,4.82-6.84,10.32-6.84s8.3,1.79,10.43,6.84l21.87,50.12,23.21-55.28h18.61c-5.16,11.66-26.35,59.32-31.28,70.87-1.91,4.26-5.16,7.29-10.09,7.29-5.38,0-8.75-2.8-10.76-7.29l-22.2-49.34Z"/>
        <path class="cls-1" d="M2039.83,367.78l-44.74-27.81v27.81h-16.93v-76.47h59.88c21.42,0,30.16,4.6,30.16,22.99v5.27c0,17.72-9.53,22.31-30.39,22.31h-13.46l44.85,25.9h-29.38ZM2051.16,315.2c0-8.19-3.03-9.53-14.24-9.53h-41.82v23.32h41.82c10.99,0,14.24-1.35,14.24-9.64v-4.15Z"/>
        <path class="cls-1" d="M2140.97,367.78c-22.54,0-29.15-6.95-29.15-26.24v-24c0-19.29,6.62-26.24,29.15-26.24h53.37v14.47h-53.37c-9.87,0-12.22,2.92-12.22,11.77v5.16h65.15v13.57h-65.15v5.38c0,9.19,2.24,11.66,12.22,11.66h53.37v14.46h-53.37Z"/>
      </g>
      <path class="cls-1" d="M1440.4,318.56v4.16h64.47v13.57h-64.47v31.51h-16.93v-50.24c0-19.28,6.62-26.24,29.15-26.24h52.25v14.69h-51.8c-9.31,0-12.67,3.59-12.67,12.56Z"/>
      <path class="cls-1" d="M1918.56,342.51l-58.22-49.99c-1.08-.93-2.32-1.65-3.64-2.15-1.32-.48-2.73-.74-4.16-.74-6.62,0-11.98,5.36-11.98,11.98v66.18h16.5v-31.51h29.56l36.7,31.51h24.66l-29.43-25.28ZM1857.06,322.71v-11.82l13.77,11.82h-13.77Z"/>
    </g>
  </g>
</svg>